<svg width="22" height="22" viewBox="0 0 22 22" fill="none" xmlns="http://www.w3.org/2000/svg">
<path d="M11 0C4.92422 0 0 4.92422 0 11C0 17.0758 4.92422 22 11 22C17.0758 22 22 17.0758 22 11C22 4.92422 17.0758 0 11 0ZM11 20.307C5.86094 20.307 1.69297 16.1391 1.69297 11C1.69297 5.86094 5.86094 1.69297 11 1.69297C16.1391 1.69297 20.307 5.86094 20.307 11C20.307 16.1391 16.1391 20.307 11 20.307ZM5.07891 16.9211L13.1184 13.1141L16.9254 5.07461L8.88594 8.88164L5.07891 16.9211V16.9211ZM12.2676 12.2676L7.18867 14.807L9.72812 9.72812L12.2676 12.2676V12.2676Z" fill="#262626"/>
</svg>
