<svg width="22" height="22" viewBox="0 0 22 22" fill="none" xmlns="http://www.w3.org/2000/svg">
<path d="M21.4925 8.94882L11.7404 0.419177C11.4234 0.141885 11.0059 -0.00818207 10.5752 0.000344421C10.1445 0.00887092 9.73397 0.175331 9.42936 0.46493L0.460281 8.99192L0 9.42946L0 22H8.64286V14.1567H13.3571V22H22V9.39272L21.4925 8.94882ZM10.609 1.49399C10.6229 1.49399 10.6143 1.49684 10.6084 1.50239C10.6022 1.49684 10.5952 1.49399 10.609 1.49399ZM20.4286 20.506H14.9286V14.1567C14.9286 13.7605 14.763 13.3805 14.4683 13.1003C14.1736 12.8201 13.7739 12.6627 13.3571 12.6627H8.64286C8.22609 12.6627 7.82639 12.8201 7.53169 13.1003C7.23699 13.3805 7.07143 13.7605 7.07143 14.1567V20.506H1.57143V10.0483L10.609 1.5213L10.6102 1.51967L20.4286 10.0483V20.506Z" fill="#262626" fill-opacity="0.99"/>
</svg>
